<?xml version="1.0" encoding="UTF-8"?>
<svg version="1.1" xmlns="http://www.w3.org/2000/svg" width="1024" height="1024">
<path d="M0 0 C-0.564033 8.40393862 -1.60428228 16.67404323 -2.89934158 24.99494553 C-3.35261884 27.91002286 -3.79564752 30.82663805 -4.23969269 33.74313354 C-4.59887559 36.10092245 -4.95944364 38.45849712 -5.32003784 40.81607056 C-13.07386408 91.60620272 -20.07955205 142.56142026 -23.83966064 193.82427979 C-23.98947091 195.85712578 -24.1484426 197.88929083 -24.30810547 199.92138672 C-25.31438762 214.30171477 -25.2443599 228.71599814 -25.25 243.125 C-25.25058914 243.81461445 -25.25117828 244.5042289 -25.25178528 245.21474075 C-25.26408044 265.61829541 -25.0470218 285.77974218 -22 306 C-21.7831958 307.53382324 -21.7831958 307.53382324 -21.56201172 309.09863281 C-17.70457511 335.91700164 -10.07166784 362.1902396 3 386 C3.52182861 386.95084473 3.52182861 386.95084473 4.05419922 387.92089844 C14.5712877 406.79871126 28.74722101 423.93523069 46 437 C46.55526367 437.43022461 47.11052734 437.86044922 47.68261719 438.30371094 C56.97592935 445.4944176 66.5634742 451.60651484 77 457 C78.07411133 457.56050049 78.07411133 457.56050049 79.16992188 458.13232422 C99.68011422 468.70761029 121.31517735 475.07361918 144 479 C144.72606445 479.13132324 145.45212891 479.26264648 146.20019531 479.39794922 C186.58177589 486.44446585 233.3140372 479.37829317 267.3203125 455.73828125 C273.92189156 450.90106283 280.05068025 445.61331166 286 440 C286.71414063 439.3503125 287.42828125 438.700625 288.1640625 438.03125 C301.13648135 425.76641763 310.61366336 410.61896164 319 395 C319.36963867 394.31583008 319.73927734 393.63166016 320.12011719 392.92675781 C338.75229471 358.08372722 347.98688029 318.94808388 353 280 C353.15098145 278.89897949 353.30196289 277.79795898 353.45751953 276.66357422 C359.25234492 232.91170488 357.80632614 186.22291673 352.45214844 142.50683594 C352.36017181 141.74881683 352.26819519 140.99079773 352.1734314 140.20980835 C351.99621517 138.7605529 351.81490767 137.31178896 351.62857056 135.86367798 C351.09603759 131.54965675 350.9187435 127.34474978 351 123 C359.05609391 129.71341159 366.1862498 137.04185546 373 145 C373.88212099 146.00711652 374.76499245 147.013576 375.6484375 148.01953125 C398.02898942 173.63424532 417.12113716 201.93457943 433 232 C433.46760742 232.88461914 433.93521484 233.76923828 434.41699219 234.68066406 C482.75088182 326.91969536 494.93995409 435.4971698 463.453125 568.41015625 C457.32243861 587.77166137 449.80404721 606.70015902 441 625 C440.53980469 625.95745117 440.07960938 626.91490234 439.60546875 627.90136719 C423.04562195 662.12432235 402.39714835 694.61224542 377 723 C376.175 723.92425781 375.35 724.84851563 374.5 725.80078125 C373.08180085 727.37948605 371.65955458 728.9545808 370.23046875 730.5234375 C368.97257252 731.92012088 367.72179869 733.32355187 366.49633789 734.7487793 C361.90335176 740.08339974 357.05168805 745.09857366 352.0625 750.0625 C350.92264648 751.2081543 350.92264648 751.2081543 349.75976562 752.37695312 C345.0028652 757.12572904 340.10463711 761.62947682 335 766 C333.91702776 766.94944858 332.83494923 767.89991784 331.75390625 768.8515625 C259.99654534 831.45221069 162.64083337 873.52795932 60.09765625 875.203125 C58.90943771 875.21013931 57.72121918 875.21715363 56.49699402 875.22438049 C52.68545697 875.24178094 48.8740753 875.24823244 45.0625 875.25 C43.76010376 875.25067474 42.45770752 875.25134949 41.11584473 875.25204468 C22.20627451 875.23646195 3.72283018 874.83679245 -15 872 C-16.20221191 871.82839355 -17.40442383 871.65678711 -18.64306641 871.47998047 C-85.98371017 861.75309517 -150.1926407 836.96033117 -206 798 C-206.73911621 797.48614746 -207.47823242 796.97229492 -208.23974609 796.44287109 C-223.01976141 786.11623671 -237.03555979 774.93248406 -250.19140625 762.59765625 C-252.35442128 760.59709297 -254.54170062 758.66334031 -256.7734375 756.7421875 C-261.40072754 752.70988934 -265.73498739 748.41203557 -270.0625 744.0625 C-271.2081543 742.92264648 -271.2081543 742.92264648 -272.37695312 741.75976562 C-277.12589707 737.00269688 -281.62546006 732.10127042 -286 727 C-286.92556727 725.95178437 -287.85256814 724.90483221 -288.78125 723.859375 C-313.90753788 695.27340467 -333.88726998 662.87305128 -351 629 C-351.41137207 628.18805176 -351.82274414 627.37610352 -352.24658203 626.53955078 C-378.57434659 574.11603301 -394.09292872 512.79281538 -395 454 C-395.02046387 452.78328613 -395.04092773 451.56657227 -395.06201172 450.31298828 C-395.82685564 399.38213025 -389.73413917 349.52763954 -374 301 C-373.68450195 300.01918457 -373.36900391 299.03836914 -373.04394531 298.02783203 C-356.22384659 246.28641954 -329.25076641 197.49308963 -294 156 C-293.10402424 154.92980673 -292.20819976 153.85948679 -291.3125 152.7890625 C-279.18420942 138.38505315 -266.39134986 124.0606651 -252.07421875 111.796875 C-249.79842282 109.8253757 -247.59077333 107.78865605 -245.375 105.75 C-239.7174035 100.64689994 -233.75419829 95.98591373 -227.72314453 91.33789062 C-226.15600887 90.12112901 -224.60626487 88.88205044 -223.05859375 87.640625 C-207.727961 75.4741042 -191.04399182 64.60995097 -174 55 C-173.12843262 54.5035498 -172.25686523 54.00709961 -171.35888672 53.49560547 C-142.21824719 37.00154627 -111.96778235 24.82975369 -80 15 C-78.39608398 14.5054834 -78.39608398 14.5054834 -76.75976562 14.00097656 C-52.51986846 6.6663038 -25.44644403 -0.10015934 0 0 Z " fill="#FFBE98" transform="translate(468,75)"/>
<path d="M0 0 C0.63647461 0.20898926 1.27294922 0.41797852 1.92871094 0.63330078 C17.30010615 5.80227121 29.60199313 14.61863256 41 26 C41.72832031 26.71671875 42.45664062 27.4334375 43.20703125 28.171875 C53.36401226 38.82969333 59.63918077 52.09262066 64 66 C64.3403125 67.03511719 64.680625 68.07023437 65.03125 69.13671875 C72.03977769 94.99688806 66.47729154 122.52490586 53.58984375 145.4140625 C51.04164131 149.55880456 48.13676591 153.28762137 45 157 C44.34386719 157.80179688 43.68773437 158.60359375 43.01171875 159.4296875 C27.57612206 177.5460551 4.77049172 189.64622987 -19 192 C-46.30191345 193.35279751 -72.98390541 188.45121838 -93.95678711 169.80224609 C-96.35498035 167.58426829 -98.67606894 165.29571945 -101 163 C-101.98033203 162.12794922 -101.98033203 162.12794922 -102.98046875 161.23828125 C-118.44605574 147.18830863 -128.06079552 123.05684562 -129.12548828 102.58740234 C-130.17615725 73.72304423 -122.82852102 47.91695613 -103.1328125 26.2578125 C-77.14075964 -1.27927879 -36.11994843 -12.10282197 0 0 Z " fill="#FFC49F" transform="translate(664,216)"/>
</svg>
